<svg width="29" height="26" viewBox="0 0 29 26" fill="none" xmlns="http://www.w3.org/2000/svg">
<path d="M14.294 25.2476C14.3933 25.3198 14.513 25.3587 14.6358 25.3587C14.7586 25.3587 14.8782 25.3198 14.9775 25.2476C15.5414 24.8545 28.8788 15.4219 28.8788 7.6638C28.9355 6.11872 28.456 4.60158 27.5217 3.36974C26.5873 2.13791 25.2555 1.26723 23.7523 0.905407C22.0765 0.497129 20.3172 0.596802 18.6982 1.19173C17.0793 1.78666 15.674 2.84993 14.6614 4.24616C13.6569 2.81978 12.2449 1.73022 10.6105 1.12034C8.976 0.510464 7.19539 0.408743 5.5021 0.828513C3.99898 1.20901 2.67355 2.09726 1.75023 3.3429C0.826901 4.58853 0.362421 6.115 0.435444 7.6638C0.401267 15.4219 13.7301 24.8545 14.294 25.2476ZM5.74986 2.00759C6.33036 1.8581 6.92761 1.78345 7.52705 1.78545C8.867 1.78531 10.1827 2.14325 11.3378 2.82224C12.493 3.50123 13.4458 4.4766 14.0975 5.64739C14.1513 5.7372 14.2278 5.81129 14.3193 5.86227C14.4107 5.91325 14.514 5.93933 14.6187 5.93789C14.7238 5.93698 14.8267 5.90797 14.9168 5.85389C15.007 5.79981 15.0811 5.72262 15.1313 5.6303C15.9297 4.21217 17.1705 3.09446 18.664 2.44799C20.1575 1.80152 21.8216 1.66185 23.402 2.05032C24.6597 2.33574 25.7769 3.05454 26.558 4.08083C27.339 5.10713 27.7341 6.37551 27.6741 7.6638C27.6741 14.1573 16.7034 22.5049 14.6187 24.0343C12.5339 22.5049 1.56327 14.1573 1.56327 7.6638C1.49684 6.37802 1.88127 5.10937 2.65027 4.07675C3.41927 3.04414 4.5246 2.31233 5.77552 2.00759H5.74986Z" fill="black"/>
</svg>
